0
SECTION
2
HEADER
9
$INSUNITS
70
4
9
$ACADVER
1
AC1014
9
$HANDSEED
5
FFFF
0
ENDSEC
0
SECTION
2
TABLES
0
TABLE
2
VPORT
5
8
100
AcDbSymbolTable
0
ENDTAB
0
TABLE
2
LTYPE
5
5
100
AcDbSymbolTable
0
LTYPE
5
14
100
AcDbSymbolTableRecord
100
AcDbLinetypeTableRecord
2
BYBLOCK
70
0
0
LTYPE
5
15
100
AcDbSymbolTableRecord
100
AcDbLinetypeTableRecord
2
BYLAYER
70
0
0
ENDTAB
0
TABLE
2
LAYER
5
2
100
AcDbSymbolTable
70
2
0
LAYER
5
50
100
AcDbSymbolTableRecord
100
AcDbLayerTableRecord
2
0
70
0
6
CONTINUOUS
0
ENDTAB
0
TABLE
2
STYLE
5
3
100
AcDbSymbolTable
70
1
0
STYLE
5
11
100
AcDbSymbolTableRecord
100
AcDbTextStyleTableRecord
2
STANDARD
70
0
0
ENDTAB
0
TABLE
2
VIEW
5
6
100
AcDbSymbolTable
70
0
0
ENDTAB
0
TABLE
2
UCS
5
7
100
AcDbSymbolTable
70
0
0
ENDTAB
0
TABLE
2
APPID
5
9
100
AcDbSymbolTable
70
2
0
APPID
5
12
100
AcDbSymbolTableRecord
100
AcDbRegAppTableRecord
2
ACAD
70
0
0
ENDTAB
0
TABLE
2
DIMSTYLE
5
A
100
AcDbSymbolTable
70
1
0
ENDTAB
0
TABLE
2
BLOCK_RECORD
5
1
100
AcDbSymbolTable
70
1
0
BLOCK_RECORD
5
1F
100
AcDbSymbolTableRecord
100
AcDbBlockTableRecord
2
*MODEL_SPACE
0
BLOCK_RECORD
5
1B
100
AcDbSymbolTableRecord
100
AcDbBlockTableRecord
2
*PAPER_SPACE
0
ENDTAB
0
ENDSEC
0
SECTION
2
BLOCKS
0
BLOCK
5
20
100
AcDbEntity
100
AcDbBlockBegin
2
*MODEL_SPACE
0
ENDBLK
5
21
100
AcDbEntity
100
AcDbBlockEnd
0
BLOCK
5
1C
100
AcDbEntity
100
AcDbBlockBegin
2
*PAPER_SPACE
0
ENDBLK
5
1D
100
AcDbEntity
100
AcDbBlockEnd
0
ENDSEC
0
SECTION
2
ENTITIES
0
CIRCLE
5
100
100
AcDbEntity
8
0
100
AcDbCircle
10
-48.908327015361124
20
155.36714532927348
30
0
40
1.5000000000000067
210
3.8125973531492563e-46
220
-4.9303806576313238e-32
230
1
0
CIRCLE
5
101
100
AcDbEntity
8
0
100
AcDbCircle
10
-78.508327015361132
20
155.36714532927365
30
-2.2204460492503131e-15
40
1.4999999999999978
210
-3.986185459763587e-46
220
4.9303806576313238e-32
230
1
0
CIRCLE
5
102
100
AcDbEntity
8
0
100
AcDbCircle
10
3.7916729846372443
20
24.367145329271438
30
2.2204460492503131e-15
40
1.5000000000000067
210
-5.792295539466283e-47
220
-4.9303806576313238e-32
230
1
0
CIRCLE
5
103
100
AcDbEntity
8
0
100
AcDbCircle
10
-131.20832701536324
20
24.367145329273143
30
2.2204460492503131e-15
40
1.5000000000000067
210
-7.2735807159084317e-47
220
-4.9303806576313238e-32
230
1
0
LWPOLYLINE
5
104
100
AcDbEntity
8
0
100
AcDbPolyline
90
16
70
1
43
0.0
10
-123.70832701536358
20
15.36714532927328
10
-123.70832701536361
20
10.367145329273271
10
-138.70832701536355
20
10.367145329273306
10
-138.70832701536077
20
130.41094189368073
42
-0.19891236737966145
10
-134.31492873315869
20
141.0175436114788
10
-95.516327015360702
20
179.81614532927435
42
-0.11495416023005339
10
-75.015160864198549
20
192.56944847822808
42
-0.082081351051957699
10
-70.188714421400419
20
193.36714532927348
10
-57.227939609320629
20
193.3671453292732
42
-0.082081351051950219
10
-52.401493166522584
20
192.56944847822763
42
-0.11495416023005732
10
-31.90032701536073
20
179.81614532927298
10
6.8982747024356907
20
141.01754361147604
42
-0.19891236737966517
10
11.291672984637431
20
130.41094189367777
10
11.291672984636694
20
10.367145329272313
10
-3.7083270153633578
20
10.367145329272534
10
-3.708327015363313
20
15.367145329272541
0
CIRCLE
5
105
100
AcDbEntity
8
0
100
AcDbCircle
10
-12.708327015362912
20
76.367145329272631
30
-2.2204460492503131e-15
40
2.0000000000000027
210
-9.7373739159930305e-32
220
5.9715865188266973e-46
230
1
0
CIRCLE
5
106
100
AcDbEntity
8
0
100
AcDbCircle
10
-72.45832701536068
20
185.36714532927334
30
0
40
1.5000000000000067
210
-9.7373739159930305e-32
220
5.9715865188266958e-46
230
1
0
CIRCLE
5
107
100
AcDbEntity
8
0
100
AcDbCircle
10
-128.70832701536321
20
60.367145329273335
30
0
40
2.0000000000000147
210
2.9705671345057494e-31
220
-9.8607613152628315e-32
230
1
0
CIRCLE
5
108
100
AcDbEntity
8
0
100
AcDbCircle
10
-114.70832701536318
20
60.367145329273256
30
0
40
1.9999999999999971
210
2.9705671345057569e-31
220
-1.821743604253404e-45
230
1
0
CIRCLE
5
109
100
AcDbEntity
8
0
100
AcDbCircle
10
-54.958327015360666
20
185.3671453292732
30
0
40
1.5000000000000067
210
-9.7373739159930305e-32
220
5.9715865188266958e-46
230
1
0
CIRCLE
5
110
100
AcDbEntity
8
0
100
AcDbCircle
10
1.2916729846369956
20
60.367145329272496
30
0
40
2.0000000000000058
210
2.9705671345057529e-31
220
-9.8607613152628315e-32
230
1
0
CIRCLE
5
111
100
AcDbEntity
8
0
100
AcDbCircle
10
-12.708327015363011
20
60.367145329272603
30
0
40
2.0000000000000071
210
-9.737373915993071e-32
220
-9.8607613152625885e-32
230
1
0
CIRCLE
5
112
100
AcDbEntity
8
0
100
AcDbCircle
10
-128.7083270153631
20
76.367145329273399
30
-2.2204460492503131e-15
40
2.0000000000000147
210
2.9705671345057494e-31
220
-9.8607613152628315e-32
230
1
0
CIRCLE
5
113
100
AcDbEntity
8
0
100
AcDbCircle
10
1.2916729846370956
20
76.367145329272546
30
-2.2204460492503131e-15
40
2.0000000000000058
210
2.9705671345057529e-31
220
-9.8607613152628315e-32
230
1
0
CIRCLE
5
114
100
AcDbEntity
8
0
100
AcDbCircle
10
-114.70832701536308
20
76.367145329273299
30
-2.2204460492503131e-15
40
2.0000000000000147
210
2.9705671345057494e-31
220
-9.8607613152628315e-32
230
1
0
CIRCLE
5
115
100
AcDbEntity
8
0
100
AcDbCircle
10
-108.46832701536272
20
142.1671453292735
30
2.2204460492503131e-15
40
1.5874999999999981
210
-9.7373739159930655e-32
220
5.9715865188267175e-46
230
1
0
CIRCLE
5
116
100
AcDbEntity
8
0
100
AcDbCircle
10
-38.764415603962362
20
94.230832063247036
30
0
40
1.7500000000000016
210
2.9705671345057604e-31
220
4.9303806576311421e-32
230
1
0
CIRCLE
5
117
100
AcDbEntity
8
0
100
AcDbCircle
10
-38.7644156039621
20
131.61033293504585
30
0
40
1.7500000000000016
210
2.9705671345057604e-31
220
4.9303806576311421e-32
230
1
0
CIRCLE
5
118
100
AcDbEntity
8
0
100
AcDbCircle
10
-57.668327015362891
20
98.987145329272991
30
0
40
1.5875000000000066
210
-9.7373739159931028e-32
220
-9.8607613152625895e-32
230
1
0
CIRCLE
5
119
100
AcDbEntity
8
0
100
AcDbCircle
10
-109.73832701536298
20
93.907145329273348
30
0
40
1.5874999999999981
210
-9.7373739159930655e-32
220
5.9715865188267175e-46
230
1
0
CIRCLE
5
120
100
AcDbEntity
8
0
100
AcDbCircle
10
-2.0226152805014133
20
94.230832063246709
30
2.2204460492503131e-15
40
1.7500000000000038
210
-9.7373739159931038e-32
220
-9.8607613152625874e-32
230
1
0
CIRCLE
5
121
100
AcDbEntity
8
0
100
AcDbCircle
10
-2.022615280501153
20
131.61033293504553
30
0
40
1.7500000000000038
210
-9.7373739159931038e-32
220
-9.8607613152625874e-32
230
1
0
CIRCLE
5
122
100
AcDbEntity
8
0
100
AcDbCircle
10
-57.668327015362735
20
126.92714532927309
30
-2.2204460492503131e-15
40
1.5875000000000066
210
-9.7373739159931028e-32
220
-9.8607613152625895e-32
230
1
0
CIRCLE
5
123
100
AcDbEntity
8
0
100
AcDbCircle
10
-88.810617747482027
20
180.86485459714964
30
0
40
1.5000000000000067
210
-2.3281521742565531e-32
220
-1.4791141972893974e-31
230
1
0
CIRCLE
5
124
100
AcDbEntity
8
0
100
AcDbCircle
10
-38.60603628323824
20
180.86485459714982
30
0
40
1.5000000000000111
210
-2.3281521742565151e-32
220
4.930380657631321e-32
230
1
0
ENDSEC
0
SECTION
2
OBJECTS
0
DICTIONARY
5
C
100
AcDbDictionary
3
ACAD_GROUP
350
D
3
ACAD_MLINESTYLE
350
17
0
DICTIONARY
5
D
100
AcDbDictionary
0
DICTIONARY
5
1A
330
C
100
AcDbDictionary
0
DICTIONARY
5
17
100
AcDbDictionary
0
ENDSEC
0
EOF
